<svg xmlns="http://www.w3.org/2000/svg" width="31.899" height="31.901" viewBox="0 0 31.899 31.901">
  <defs>
    <style>
      .cls-1 {
        fill: #ff7588;
      }
    </style>
  </defs>
  <path id="Icon_awesome-drafting-compass" data-name="Icon awesome-drafting-compass" class="cls-1" d="M28.474,21.459a19.739,19.739,0,0,1-5.143,3.056l3.388,5.868,3.361,1.435a1,1,0,0,0,1.381-.8l.437-3.629-3.426-5.933Zm2.647-5.892a1,1,0,0,0-.377-1.4L29,13.2a1,1,0,0,0-1.325.356A13.97,13.97,0,0,1,15.95,19.938a13.854,13.854,0,0,1-4.325-.718l4.2-7.27c.044,0,.083.013.127.013s.084-.012.127-.013l3.183,5.514a11.868,11.868,0,0,0,5.147-3.048L21.18,8.826a5.9,5.9,0,0,0,.751-2.845,5.981,5.981,0,0,0-11.963,0,5.91,5.91,0,0,0,.751,2.845L6.464,16.2a13.93,13.93,0,0,1-2.1-2.43,1,1,0,0,0-1.332-.332l-1.729,1a1,1,0,0,0-.351,1.4A17.877,17.877,0,0,0,4.441,19.7L0,27.393l.437,3.629a1,1,0,0,0,1.381.8L5.18,30.384l4.411-7.64a17.884,17.884,0,0,0,6.359,1.181A17.97,17.97,0,0,0,31.121,15.567ZM15.95,3.988a1.994,1.994,0,1,1-1.994,1.994A1.994,1.994,0,0,1,15.95,3.988Z"/>
</svg>
