<svg xmlns="http://www.w3.org/2000/svg" width="30.147" height="26.379" viewBox="0 0 30.147 26.379">
  <defs>
    <style>
      .cls-1 {
        fill: #ff7588;
      }
    </style>
  </defs>
  <path id="Icon_awesome-camera" data-name="Icon awesome-camera" class="cls-1" d="M30.147,8.845V25.8a2.827,2.827,0,0,1-2.826,2.826H2.826A2.827,2.827,0,0,1,0,25.8V8.845A2.827,2.827,0,0,1,2.826,6.018H8.008l.724-1.937A2.822,2.822,0,0,1,11.376,2.25h7.39a2.822,2.822,0,0,1,2.644,1.831l.73,1.937h5.181A2.827,2.827,0,0,1,30.147,8.845Zm-8.008,8.479a7.066,7.066,0,1,0-7.066,7.066A7.071,7.071,0,0,0,22.139,17.323Zm-1.884,0a5.181,5.181,0,1,1-5.181-5.181A5.189,5.189,0,0,1,20.255,17.323Z" transform="translate(0 -2.25)"/>
</svg>
