<svg xmlns="http://www.w3.org/2000/svg" width="26.527" height="30.317" viewBox="0 0 26.527 30.317">
  <defs>
    <style>
      .cls-1 {
        fill: #ff7588;
      }
    </style>
  </defs>
  <path id="Icon_awesome-bell" data-name="Icon awesome-bell" class="cls-1" d="M13.264,30.317a3.789,3.789,0,0,0,3.788-3.79H9.476A3.789,3.789,0,0,0,13.264,30.317Zm12.754-8.865c-1.144-1.229-3.285-3.078-3.285-9.136a9.351,9.351,0,0,0-7.576-9.187V1.895a1.894,1.894,0,1,0-3.787,0V3.129a9.351,9.351,0,0,0-7.576,9.187c0,6.057-2.141,7.907-3.285,9.136A1.85,1.85,0,0,0,0,22.738a1.9,1.9,0,0,0,1.9,1.895H24.627a1.9,1.9,0,0,0,1.9-1.895,1.849,1.849,0,0,0-.51-1.286Z" transform="translate(0)"/>
</svg>
