<svg xmlns="http://www.w3.org/2000/svg" width="37.124" height="32.993" viewBox="0 0 37.124 32.993">
  <defs>
    <style>
      .cls-1 {
        fill: #7a65ff;
      }
    </style>
  </defs>
  <path id="Icon_awesome-edit" data-name="Icon awesome-edit" class="cls-1" d="M25.948,5.363l5.814,5.814a.63.63,0,0,1,0,.889L17.685,26.142l-5.981.664a1.254,1.254,0,0,1-1.386-1.386l.664-5.981L25.059,5.363A.63.63,0,0,1,25.948,5.363ZM36.389,3.887,33.244.742a2.521,2.521,0,0,0-3.558,0L27.4,3.023a.63.63,0,0,0,0,.889l5.814,5.814a.63.63,0,0,0,.889,0l2.282-2.282a2.521,2.521,0,0,0,0-3.558ZM24.749,22.314v6.561H4.125V8.25H18.936a.792.792,0,0,0,.548-.226l2.578-2.578a.773.773,0,0,0-.548-1.321H3.094A3.094,3.094,0,0,0,0,7.219V29.906A3.094,3.094,0,0,0,3.094,33H25.781a3.094,3.094,0,0,0,3.094-3.094V19.736a.775.775,0,0,0-1.321-.548l-2.578,2.578A.792.792,0,0,0,24.749,22.314Z" transform="translate(0 -0.007)"/>
</svg>
