<svg xmlns="http://www.w3.org/2000/svg" width="30.147" height="30.147" viewBox="0 0 30.147 30.147">
  <defs>
    <style>
      .cls-1 {
        fill: #ff7588;
      }
    </style>
  </defs>
  <path id="Icon_awesome-music" data-name="Icon awesome-music" class="cls-1" d="M30.146,1.885A1.883,1.883,0,0,0,27.7.088L8.856,5.652a1.884,1.884,0,0,0-1.319,1.8V22.841a8.145,8.145,0,0,0-1.884-.231C2.531,22.61,0,24.3,0,26.378s2.531,3.768,5.653,3.768,5.653-1.687,5.653-3.768V12.619L26.379,8.2V19.073a8.145,8.145,0,0,0-1.884-.231c-3.122,0-5.653,1.687-5.653,3.768s2.531,3.768,5.653,3.768,5.653-1.687,5.653-3.768V1.885Z" transform="translate(0 0.001)"/>
</svg>
