<svg xmlns="http://www.w3.org/2000/svg" width="21.368" height="27" viewBox="0 0 21.368 27">
  <defs>
    <style>
      .cls-1 {
        fill: #ffaa8f;
      }
    </style>
  </defs>
  <path id="Path_1" data-name="Path 1" class="cls-1" d="M13.922,31.5H26.016a2.58,2.58,0,0,0,2.4-1.645l4.015-9.52a2.691,2.691,0,0,0,.183-.984V16.636c0-1.484-1.2-3.136-2.658-3.136H21.579l1.266-5.73.042-.422A2.038,2.038,0,0,0,22.3,5.92L20.883,4.5l-8.859,8.951a2.707,2.707,0,0,0-.773,1.905v13.5A2.651,2.651,0,0,0,13.922,31.5Z" transform="translate(-11.25 -4.5)"/>
</svg>
